<svg width="398" height="299" viewBox="0 0 398 299" fill="none" xmlns="http://www.w3.org/2000/svg">
<circle opacity="0.1" cx="197" cy="143" r="137" stroke="#19A861" stroke-width="12"/>
<path d="M15.4062 90.6094C17.5938 90.6094 19.625 90.974 21.5 91.7031C23.375 92.4583 24.9896 93.5 26.3438 94.8281C27.6979 96.1562 28.7526 97.7318 29.5078 99.5547C30.263 101.378 30.6406 103.331 30.6406 105.414C30.6406 107.497 30.263 109.438 29.5078 111.234C28.7526 113.057 27.6979 114.633 26.3438 115.961C24.9896 117.289 23.375 118.331 21.5 119.086C19.625 119.841 17.5938 120.219 15.4062 120.219H2.24219V141H0.210938V90.6094H15.4062ZM15.4062 118.188C17.3333 118.188 19.1042 117.862 20.7188 117.211C22.3073 116.534 23.6875 115.622 24.8594 114.477C26.0312 113.331 26.9557 111.99 27.6328 110.453C28.3099 108.917 28.6354 107.237 28.6094 105.414C28.6094 103.591 28.2839 101.911 27.6328 100.375C26.9557 98.8385 26.0312 97.4844 24.8594 96.3125C23.6875 95.1667 22.3073 94.2682 20.7188 93.6172C19.1302 92.9401 17.3594 92.6016 15.4062 92.6016H2.24219V118.188H15.4062Z" fill="#212121"/>
<path d="M53.7656 90.6094H55.3672L74.5469 141H72.5547L67.3594 127.016H41.7734L36.5781 141H34.5469L53.7656 90.6094ZM42.5547 124.984H66.5781L54.5469 93.8125L42.5547 124.984Z" fill="#212121"/>
<path d="M102.086 92.2109C99.4818 92.2109 96.9557 92.7969 94.5078 93.9688C92.0599 95.1406 89.8854 96.7812 87.9844 98.8906C86.0833 101 84.5599 103.487 83.4141 106.352C82.2682 109.242 81.6953 112.393 81.6953 115.805C81.6953 119.216 82.2682 122.367 83.4141 125.258C84.5599 128.148 86.0833 130.635 87.9844 132.719C89.8854 134.828 92.0599 136.469 94.5078 137.641C96.9557 138.812 99.4818 139.398 102.086 139.398C106.669 139.398 110.484 138.044 113.531 135.336C116.578 132.628 118.896 129.047 120.484 124.594H122.477C121.669 127.094 120.641 129.372 119.391 131.43C118.141 133.487 116.669 135.258 114.977 136.742C113.258 138.227 111.331 139.385 109.195 140.219C107.06 141.026 104.69 141.417 102.086 141.391C99.1953 141.391 96.4089 140.753 93.7266 139.477C91.0443 138.201 88.6615 136.43 86.5781 134.164C84.4948 131.898 82.8281 129.19 81.5781 126.039C80.3281 122.888 79.7031 119.477 79.7031 115.805C79.7031 112.133 80.3281 108.721 81.5781 105.57C82.8281 102.419 84.4948 99.7109 86.5781 97.4453C88.6615 95.1797 91.0443 93.4089 93.7266 92.1328C96.4089 90.8568 99.1953 90.2188 102.086 90.2188C104.69 90.2188 107.06 90.6094 109.195 91.3906C111.331 92.1979 113.245 93.3438 114.938 94.8281C116.63 96.3125 118.062 98.0833 119.234 100.141C120.432 102.198 121.383 104.49 122.086 107.016H120.094C119.391 104.828 118.492 102.823 117.398 101C116.305 99.1771 115.003 97.6146 113.492 96.3125C111.982 95.0104 110.276 93.9948 108.375 93.2656C106.474 92.5625 104.378 92.2109 102.086 92.2109Z" fill="#212121"/>
<path d="M152.477 92.2109C149.872 92.2109 147.346 92.7969 144.898 93.9688C142.451 95.1406 140.276 96.7812 138.375 98.8906C136.474 101 134.951 103.487 133.805 106.352C132.659 109.242 132.086 112.393 132.086 115.805C132.086 119.216 132.659 122.367 133.805 125.258C134.951 128.148 136.474 130.635 138.375 132.719C140.276 134.828 142.451 136.469 144.898 137.641C147.346 138.812 149.872 139.398 152.477 139.398C157.06 139.398 160.875 138.044 163.922 135.336C166.969 132.628 169.286 129.047 170.875 124.594H172.867C172.06 127.094 171.031 129.372 169.781 131.43C168.531 133.487 167.06 135.258 165.367 136.742C163.648 138.227 161.721 139.385 159.586 140.219C157.451 141.026 155.081 141.417 152.477 141.391C149.586 141.391 146.799 140.753 144.117 139.477C141.435 138.201 139.052 136.43 136.969 134.164C134.885 131.898 133.219 129.19 131.969 126.039C130.719 122.888 130.094 119.477 130.094 115.805C130.094 112.133 130.719 108.721 131.969 105.57C133.219 102.419 134.885 99.7109 136.969 97.4453C139.052 95.1797 141.435 93.4089 144.117 92.1328C146.799 90.8568 149.586 90.2188 152.477 90.2188C155.081 90.2188 157.451 90.6094 159.586 91.3906C161.721 92.1979 163.635 93.3438 165.328 94.8281C167.021 96.3125 168.453 98.0833 169.625 100.141C170.823 102.198 171.773 104.49 172.477 107.016H170.484C169.781 104.828 168.883 102.823 167.789 101C166.695 99.1771 165.393 97.6146 163.883 96.3125C162.372 95.0104 160.667 93.9948 158.766 93.2656C156.865 92.5625 154.768 92.2109 152.477 92.2109Z" fill="#212121"/>
<path d="M199.234 90.6094C201.422 90.6094 203.453 90.974 205.328 91.7031C207.203 92.4583 208.818 93.5 210.172 94.8281C211.526 96.1562 212.581 97.7318 213.336 99.5547C214.091 101.378 214.469 103.331 214.469 105.414C214.469 107.497 214.091 109.438 213.336 111.234C212.581 113.057 211.526 114.633 210.172 115.961C208.818 117.289 207.203 118.331 205.328 119.086C203.453 119.841 201.422 120.219 199.234 120.219H186.07V141H184.039V90.6094H199.234ZM199.234 118.188C201.161 118.188 202.932 117.862 204.547 117.211C206.135 116.534 207.516 115.622 208.688 114.477C209.859 113.331 210.784 111.99 211.461 110.453C212.138 108.917 212.464 107.237 212.438 105.414C212.438 103.591 212.112 101.911 211.461 100.375C210.784 98.8385 209.859 97.4844 208.688 96.3125C207.516 95.1667 206.135 94.2682 204.547 93.6172C202.958 92.9401 201.188 92.6016 199.234 92.6016H186.07V118.188H199.234Z" fill="#212121"/>
<path d="M265.602 115.805C265.602 112.393 265.029 109.242 263.883 106.352C262.737 103.461 261.227 100.974 259.352 98.8906C257.451 96.7812 255.276 95.1406 252.828 93.9688C250.38 92.7969 247.841 92.2109 245.211 92.2109C242.607 92.2109 240.081 92.7969 237.633 93.9688C235.185 95.1406 233.01 96.7812 231.109 98.8906C229.208 101 227.685 103.487 226.539 106.352C225.393 109.242 224.82 112.393 224.82 115.805C224.82 119.216 225.393 122.367 226.539 125.258C227.685 128.148 229.208 130.635 231.109 132.719C233.01 134.828 235.185 136.469 237.633 137.641C240.081 138.812 242.607 139.398 245.211 139.398C247.815 139.398 250.354 138.812 252.828 137.641C255.276 136.469 257.451 134.828 259.352 132.719C261.253 130.609 262.763 128.122 263.883 125.258C265.029 122.367 265.602 119.216 265.602 115.805ZM267.633 115.805C267.633 119.477 266.995 122.888 265.719 126.039C264.469 129.19 262.802 131.898 260.719 134.164C258.635 136.43 256.253 138.201 253.57 139.477C250.888 140.753 248.102 141.391 245.211 141.391C242.32 141.391 239.534 140.753 236.852 139.477C234.169 138.201 231.786 136.43 229.703 134.164C227.62 131.898 225.953 129.19 224.703 126.039C223.453 122.888 222.828 119.477 222.828 115.805C222.828 112.133 223.453 108.721 224.703 105.57C225.953 102.419 227.62 99.7109 229.703 97.4453C231.786 95.1797 234.169 93.4089 236.852 92.1328C239.534 90.8568 242.32 90.2188 245.211 90.2188C248.102 90.2188 250.888 90.8568 253.57 92.1328C256.253 93.4089 258.635 95.1797 260.719 97.4453C262.802 99.7109 264.469 102.419 265.719 105.57C266.995 108.721 267.633 112.133 267.633 115.805Z" fill="#212121"/>
<path d="M310.016 90.6094V141H308.023V118.617C306.904 119.685 305.615 120.609 304.156 121.391C302.932 122.146 301.448 122.81 299.703 123.383C297.984 123.93 296.083 124.203 294 124.203C291.708 124.203 289.599 123.826 287.672 123.07C285.771 122.289 284.13 121.208 282.75 119.828C281.396 118.422 280.328 116.729 279.547 114.75C278.792 112.771 278.414 110.583 278.414 108.188V90.6094H280.406V108.188C280.406 110.271 280.732 112.185 281.383 113.93C282.06 115.648 282.997 117.133 284.195 118.383C285.393 119.607 286.812 120.557 288.453 121.234C290.12 121.885 291.969 122.211 294 122.211C296.083 122.211 297.984 121.938 299.703 121.391C301.448 120.818 302.932 120.154 304.156 119.398C305.589 118.591 306.878 117.654 308.023 116.586V90.6094H310.016Z" fill="#212121"/>
<path d="M326.461 115.414V141H324.43V90.6094H326.461V115.414L350.836 90.6094H353.648L328.844 115.414L354.43 141H351.656L326.461 115.414Z" fill="#212121"/>
<path d="M376.812 90.6094H378.414L397.594 141H395.602L390.406 127.016H364.82L359.625 141H357.594L376.812 90.6094ZM365.602 124.984H389.625L377.594 93.8125L365.602 124.984Z" fill="#212121"/>
<path d="M196.003 192.5C196.003 187.475 195.089 183.831 193.262 181.566C191.505 179.302 189.432 178.169 187.043 178.169C184.653 178.169 182.545 179.302 180.718 181.566C178.961 183.831 178.083 187.475 178.083 192.5C178.083 197.525 178.961 201.169 180.718 203.434C182.545 205.698 184.653 206.831 187.043 206.831C189.432 206.831 191.505 205.698 193.262 203.434C195.089 201.169 196.003 197.525 196.003 192.5ZM217.085 192.5C217.085 197.808 216.312 202.585 214.766 206.831C213.22 211.077 211.077 214.722 208.336 217.765C205.665 220.737 202.503 223.037 198.849 224.665C195.194 226.222 191.259 227 187.043 227C182.826 227 178.891 226.222 175.236 224.665C171.582 223.037 168.385 220.737 165.644 217.765C162.973 214.722 160.865 211.077 159.319 206.831C157.773 202.585 157 197.808 157 192.5C157 187.192 157.773 182.415 159.319 178.169C160.865 173.923 162.973 170.314 165.644 167.342C168.385 164.298 171.582 161.998 175.236 160.442C178.891 158.814 182.826 158 187.043 158C191.259 158 195.194 158.814 198.849 160.442C202.503 161.998 205.665 164.298 208.336 167.342C211.077 170.314 213.22 173.923 214.766 178.169C216.312 182.415 217.085 187.192 217.085 192.5Z" fill="#19A861"/>
<path d="M236.633 221.958C236.633 221.663 236.535 221.417 236.34 221.221C236.145 221.024 235.901 220.926 235.608 220.926C235.315 220.926 235.071 221.024 234.876 221.221C234.681 221.417 234.583 221.663 234.583 221.958C234.583 222.253 234.681 222.498 234.876 222.695C235.071 222.891 235.315 222.99 235.608 222.99C235.901 222.99 236.145 222.891 236.34 222.695C236.535 222.498 236.633 222.253 236.633 221.958ZM231.216 221.958C231.216 221.368 231.323 220.818 231.538 220.306C231.772 219.776 232.084 219.324 232.475 218.95C232.865 218.557 233.324 218.252 233.851 218.036C234.398 217.8 234.983 217.682 235.608 217.682C236.232 217.682 236.808 217.8 237.335 218.036C237.882 218.252 238.35 218.557 238.741 218.95C239.131 219.324 239.434 219.776 239.649 220.306C239.883 220.818 240 221.368 240 221.958C240 222.547 239.883 223.108 239.649 223.638C239.434 224.15 239.131 224.602 238.741 224.995C238.35 225.368 237.882 225.673 237.335 225.909C236.808 226.125 236.232 226.233 235.608 226.233C234.983 226.233 234.398 226.125 233.851 225.909C233.324 225.673 232.865 225.368 232.475 224.995C232.084 224.602 231.772 224.15 231.538 223.638C231.323 223.108 231.216 222.547 231.216 221.958ZM238.243 207.362L226.97 225.938H222.578L233.851 207.362H238.243ZM224.188 211.342C224.188 211.637 224.286 211.883 224.481 212.079C224.676 212.276 224.92 212.374 225.213 212.374C225.506 212.374 225.75 212.276 225.945 212.079C226.14 211.883 226.238 211.637 226.238 211.342C226.238 211.047 226.14 210.802 225.945 210.605C225.75 210.409 225.506 210.31 225.213 210.31C224.92 210.31 224.676 210.409 224.481 210.605C224.286 210.802 224.188 211.047 224.188 211.342ZM229.605 211.342C229.605 211.932 229.488 212.492 229.254 213.023C229.039 213.534 228.736 213.986 228.346 214.379C227.956 214.753 227.487 215.058 226.941 215.294C226.413 215.51 225.838 215.618 225.213 215.618C224.588 215.618 224.003 215.51 223.456 215.294C222.929 215.058 222.47 214.753 222.08 214.379C221.689 213.986 221.377 213.534 221.143 213.023C220.928 212.492 220.821 211.932 220.821 211.342C220.821 210.753 220.928 210.202 221.143 209.691C221.377 209.16 221.689 208.708 222.08 208.335C222.47 207.941 222.929 207.637 223.456 207.421C224.003 207.185 224.588 207.067 225.213 207.067C225.838 207.067 226.413 207.185 226.941 207.421C227.487 207.637 227.956 207.941 228.346 208.335C228.736 208.708 229.039 209.16 229.254 209.691C229.488 210.202 229.605 210.753 229.605 211.342Z" fill="#19A861"/>
<path d="M196.003 264.5C196.003 269.525 195.089 273.169 193.262 275.434C191.505 277.698 189.432 278.831 187.043 278.831C184.653 278.831 182.545 277.698 180.718 275.434C178.961 273.169 178.083 269.525 178.083 264.5C178.083 259.475 178.961 255.831 180.718 253.566C182.545 251.302 184.653 250.169 187.043 250.169C189.432 250.169 191.505 251.302 193.262 253.566C195.089 255.831 196.003 259.475 196.003 264.5ZM217.085 264.5C217.085 259.192 216.312 254.415 214.766 250.169C213.22 245.923 211.077 242.278 208.336 239.235C205.665 236.263 202.503 233.963 198.849 232.335C195.194 230.778 191.259 230 187.043 230C182.826 230 178.891 230.778 175.236 232.335C171.582 233.963 168.385 236.263 165.644 239.235C162.973 242.278 160.865 245.923 159.319 250.169C157.773 254.415 157 259.192 157 264.5C157 269.808 157.773 274.585 159.319 278.831C160.865 283.077 162.973 286.686 165.644 289.658C168.385 292.702 171.582 295.002 175.236 296.558C178.891 298.186 182.826 299 187.043 299C191.259 299 195.194 298.186 198.849 296.558C202.503 295.002 205.665 292.702 208.336 289.658C211.077 286.686 213.22 283.077 214.766 278.831C216.312 274.585 217.085 269.808 217.085 264.5Z" fill="url(#paint0_linear_64_142)" fill-opacity="0.1"/>
<path d="M236.633 235.042C236.633 235.337 236.535 235.583 236.34 235.779C236.145 235.976 235.901 236.074 235.608 236.074C235.315 236.074 235.071 235.976 234.876 235.779C234.681 235.583 234.583 235.337 234.583 235.042C234.583 234.747 234.681 234.502 234.876 234.305C235.071 234.109 235.315 234.01 235.608 234.01C235.901 234.01 236.145 234.109 236.34 234.305C236.535 234.502 236.633 234.747 236.633 235.042ZM231.216 235.042C231.216 235.632 231.323 236.182 231.538 236.694C231.772 237.224 232.084 237.676 232.475 238.05C232.865 238.443 233.324 238.748 233.851 238.964C234.398 239.2 234.983 239.318 235.608 239.318C236.232 239.318 236.808 239.2 237.335 238.964C237.882 238.748 238.35 238.443 238.741 238.05C239.131 237.676 239.434 237.224 239.649 236.694C239.883 236.182 240 235.632 240 235.042C240 234.453 239.883 233.892 239.649 233.362C239.434 232.85 239.131 232.398 238.741 232.005C238.35 231.632 237.882 231.327 237.335 231.091C236.808 230.875 236.232 230.767 235.608 230.767C234.983 230.767 234.398 230.875 233.851 231.091C233.324 231.327 232.865 231.632 232.475 232.005C232.084 232.398 231.772 232.85 231.538 233.362C231.323 233.892 231.216 234.453 231.216 235.042ZM238.243 249.638L226.97 231.062H222.578L233.851 249.638H238.243ZM224.188 245.658C224.188 245.363 224.286 245.117 224.481 244.921C224.676 244.724 224.92 244.626 225.213 244.626C225.506 244.626 225.75 244.724 225.945 244.921C226.14 245.117 226.238 245.363 226.238 245.658C226.238 245.953 226.14 246.198 225.945 246.395C225.75 246.591 225.506 246.69 225.213 246.69C224.92 246.69 224.676 246.591 224.481 246.395C224.286 246.198 224.188 245.953 224.188 245.658ZM229.605 245.658C229.605 245.068 229.488 244.508 229.254 243.977C229.039 243.466 228.736 243.014 228.346 242.621C227.956 242.247 227.487 241.942 226.941 241.706C226.413 241.49 225.838 241.382 225.213 241.382C224.588 241.382 224.003 241.49 223.456 241.706C222.929 241.942 222.47 242.247 222.08 242.621C221.689 243.014 221.377 243.466 221.143 243.977C220.928 244.508 220.821 245.068 220.821 245.658C220.821 246.247 220.928 246.798 221.143 247.309C221.377 247.84 221.689 248.292 222.08 248.665C222.47 249.059 222.929 249.363 223.456 249.579C224.003 249.815 224.588 249.933 225.213 249.933C225.838 249.933 226.413 249.815 226.941 249.579C227.487 249.363 227.956 249.059 228.346 248.665C228.736 248.292 229.039 247.84 229.254 247.309C229.488 246.798 229.605 246.247 229.605 245.658Z" fill="url(#paint1_linear_64_142)" fill-opacity="0.1"/>
<defs>
<linearGradient id="paint0_linear_64_142" x1="198.5" y1="299" x2="198.5" y2="230" gradientUnits="userSpaceOnUse">
<stop offset="0.520833" stop-color="#19A861" stop-opacity="0"/>
<stop offset="1" stop-color="#19A861"/>
</linearGradient>
<linearGradient id="paint1_linear_64_142" x1="198.5" y1="299" x2="198.5" y2="230" gradientUnits="userSpaceOnUse">
<stop offset="0.520833" stop-color="#19A861" stop-opacity="0"/>
<stop offset="1" stop-color="#19A861"/>
</linearGradient>
</defs>
</svg>
